<mxfile host="app.diagrams.net" modified="2024-01-01T00:00:00.000Z" agent="Claude" etag="VLF_Racer_Control_Fixed" version="22.1.16" type="device">
  <diagram name="VLF_Racer_Control" id="VLF_Racer_Control">
    <mxGraphModel dx="1422" dy="794" grid="1" gridSize="10" guides="1" tooltips="1" connect="1" arrows="1" fold="1" page="1" pageScale="1" pageWidth="1169" pageHeight="827" math="0" shadow="0">
      <root>
        <mxCell id="0"/>
        <mxCell id="1" parent="0"/>
        
        <!-- Title -->
        <mxCell id="title" value="VLF_Racer 제어 구조 다이어그램 (완전판)" style="text;html=1;strokeColor=none;fillColor=none;align=center;verticalAlign=middle;whiteSpace=wrap;rounded=0;fontSize=18;fontStyle=1;fontColor=#2c5282;" vertex="1" parent="1">
          <mxGeometry x="285" y="20" width="400" height="40" as="geometry"/>
        </mxCell>
        
        <!-- Hardware Layer -->
        <mxCell id="hw_label" value="하드웨어 계층" style="text;html=1;strokeColor=none;fillColor=none;align=center;verticalAlign=middle;whiteSpace=wrap;rounded=0;fontSize=14;fontStyle=1;fontColor=#1976d2;" vertex="1" parent="1">
          <mxGeometry x="80" y="80" width="120" height="20" as="geometry"/>
        </mxCell>
        
        <mxCell id="arduino" value="Arduino Uno&#xa;+ FreeRTOS" style="rounded=1;whiteSpace=wrap;html=1;fillColor=#e3f2fd;strokeColor=#2196f3;strokeWidth=2;fontStyle=1;" vertex="1" parent="1">
          <mxGeometry x="80" y="110" width="120" height="50" as="geometry"/>
        </mxCell>
        
        <mxCell id="camera" value="TSL1401&#xa;Camera&#xa;(128px)" style="rounded=1;whiteSpace=wrap;html=1;fillColor=#e3f2fd;strokeColor=#2196f3;strokeWidth=2;" vertex="1" parent="1">
          <mxGeometry x="80" y="180" width="120" height="60" as="geometry"/>
        </mxCell>
        
        <mxCell id="motor" value="DC Motor&#xa;+ Encoder" style="rounded=1;whiteSpace=wrap;html=1;fillColor=#e3f2fd;strokeColor=#2196f3;strokeWidth=2;" vertex="1" parent="1">
          <mxGeometry x="80" y="260" width="120" height="50" as="geometry"/>
        </mxCell>
        
        <mxCell id="servo" value="Servo Motor&#xa;(조향)" style="rounded=1;whiteSpace=wrap;html=1;fillColor=#e3f2fd;strokeColor=#2196f3;strokeWidth=2;" vertex="1" parent="1">
          <mxGeometry x="80" y="330" width="120" height="50" as="geometry"/>
        </mxCell>
        
        <!-- Task Layer -->
        <mxCell id="task_label" value="FreeRTOS 태스크 계층" style="text;html=1;strokeColor=none;fillColor=none;align=center;verticalAlign=middle;whiteSpace=wrap;rounded=0;fontSize=14;fontStyle=1;fontColor=#7b1fa2;" vertex="1" parent="1">
          <mxGeometry x="320" y="80" width="160" height="20" as="geometry"/>
        </mxCell>
        
        <mxCell id="taskCamera" value="TaskCamera&#xa;(25Hz - 우선순위 1)&#xa;&#xa;• TSL1401 데이터 읽기&#xa;• 임계값 처리&#xa;• 라인 중심점 계산&#xa;• 조향각 계산" style="rounded=1;whiteSpace=wrap;html=1;fillColor=#f3e5f5;strokeColor=#9c27b0;strokeWidth=2;align=left;spacingLeft=8;" vertex="1" parent="1">
          <mxGeometry x="280" y="110" width="180" height="100" as="geometry"/>
        </mxCell>
        
        <mxCell id="taskSerial" value="TaskSerial&#xa;(10Hz - 우선순위 2)&#xa;&#xa;• 픽셀 데이터 전송&#xa;• 디버그 출력" style="rounded=1;whiteSpace=wrap;html=1;fillColor=#f3e5f5;strokeColor=#9c27b0;strokeWidth=2;align=left;spacingLeft=8;" vertex="1" parent="1">
          <mxGeometry x="280" y="230" width="180" height="80" as="geometry"/>
        </mxCell>
        
        <mxCell id="taskControl" value="TaskControl&#xa;(50Hz - 우선순위 3)&#xa;&#xa;• 미션 로직 수행&#xa;• 모터 PWM 제어&#xa;• 서보 조향 제어" style="rounded=1;whiteSpace=wrap;html=1;fillColor=#f3e5f5;strokeColor=#9c27b0;strokeWidth=2;align=left;spacingLeft=8;" vertex="1" parent="1">
          <mxGeometry x="280" y="330" width="180" height="90" as="geometry"/>
        </mxCell>
        
        <!-- Data Layer -->
        <mxCell id="data_label" value="데이터 구조" style="text;html=1;strokeColor=none;fillColor=none;align=center;verticalAlign=middle;whiteSpace=wrap;rounded=0;fontSize=14;fontStyle=1;fontColor=#388e3c;" vertex="1" parent="1">
          <mxGeometry x="520" y="80" width="100" height="20" as="geometry"/>
        </mxCell>
        
        <mxCell id="pixelData" value="픽셀 데이터&#xa;&#xa;• Pixel[128]&#xa;• PixelBuffer[128]&#xa;• threshold_data[128]" style="rounded=1;whiteSpace=wrap;html=1;fillColor=#e8f5e8;strokeColor=#4caf50;strokeWidth=2;" vertex="1" parent="1">
          <mxGeometry x="520" y="110" width="140" height="90" as="geometry"/>
        </mxCell>
        
        <mxCell id="controlData" value="제어 변수&#xa;&#xa;• vision_steer_angle&#xa;• steering_angle&#xa;• mission_flag&#xa;• encoderPos" style="rounded=1;whiteSpace=wrap;html=1;fillColor=#e8f5e8;strokeColor=#4caf50;strokeWidth=2;" vertex="1" parent="1">
          <mxGeometry x="520" y="220" width="140" height="100" as="geometry"/>
        </mxCell>
        
        <!-- Safety & Mission Systems -->
        <mxCell id="safety_label" value="안전 시스템" style="text;html=1;strokeColor=none;fillColor=none;align=center;verticalAlign=middle;whiteSpace=wrap;rounded=0;fontSize=14;fontStyle=1;fontColor=#f57c00;" vertex="1" parent="1">
          <mxGeometry x="720" y="80" width="100" height="20" as="geometry"/>
        </mxCell>
        
        <mxCell id="watchdog" value="Watchdog Timer&#xa;(2초 타임아웃)" style="rounded=1;whiteSpace=wrap;html=1;fillColor=#fff3e0;strokeColor=#ff9800;strokeWidth=2;" vertex="1" parent="1">
          <mxGeometry x="720" y="110" width="120" height="50" as="geometry"/>
        </mxCell>
        
        <mxCell id="semaphores" value="세마포어&#xa;&#xa;• xSerialSemaphore&#xa;• xDataSemaphore&#xa;• xSteeringSemaphore" style="rounded=1;whiteSpace=wrap;html=1;fillColor=#fff3e0;strokeColor=#ff9800;strokeWidth=2;align=left;spacingLeft=8;" vertex="1" parent="1">
          <mxGeometry x="720" y="180" width="150" height="80" as="geometry"/>
        </mxCell>
        
        <mxCell id="missions" value="미션 시스템&#xa;&#xa;0: start_stop&#xa;1: lane_control ✓&#xa;2: wall_following&#xa;3: turn90&#xa;4-6: 확장 미션" style="rounded=1;whiteSpace=wrap;html=1;fillColor=#fff8e1;strokeColor=#ffc107;strokeWidth=2;align=left;spacingLeft=8;" vertex="1" parent="1">
          <mxGeometry x="520" y="340" width="140" height="100" as="geometry"/>
        </mxCell>
        
        <!-- Main Data Flow -->
        <!-- Camera to TaskCamera -->
        <mxCell id="flow1" style="edgeStyle=orthogonalEdgeStyle;rounded=0;orthogonalLoop=1;jettySize=auto;html=1;strokeColor=#1976d2;strokeWidth=3;endArrow=classic;endSize=8;" edge="1" parent="1" source="camera" target="taskCamera">
          <mxGeometry relative="1" as="geometry"/>
        </mxCell>
        <mxCell id="flow1_label" value="픽셀 읽기" style="text;html=1;strokeColor=none;fillColor=none;align=center;verticalAlign=middle;whiteSpace=wrap;rounded=0;fontSize=10;fontColor=#1976d2;" vertex="1" parent="1">
          <mxGeometry x="215" y="140" width="60" height="20" as="geometry"/>
        </mxCell>
        
        <!-- TaskCamera to PixelData -->
        <mxCell id="flow2" style="edgeStyle=orthogonalEdgeStyle;rounded=0;orthogonalLoop=1;jettySize=auto;html=1;strokeColor=#388e3c;strokeWidth=2;endArrow=classic;endSize=6;" edge="1" parent="1" source="taskCamera" target="pixelData">
          <mxGeometry relative="1" as="geometry"/>
        </mxCell>
        
        <!-- TaskCamera to ControlData -->
        <mxCell id="flow3" style="edgeStyle=orthogonalEdgeStyle;rounded=0;orthogonalLoop=1;jettySize=auto;html=1;strokeColor=#388e3c;strokeWidth=2;endArrow=classic;endSize=6;" edge="1" parent="1" source="taskCamera" target="controlData">
          <mxGeometry relative="1" as="geometry">
            <Array as="points">
              <mxPoint x="500" y="160"/>
              <mxPoint x="500" y="270"/>
            </Array>
          </mxGeometry>
        </mxCell>
        <mxCell id="flow3_label" value="조향각&#xa;계산" style="text;html=1;strokeColor=none;fillColor=none;align=center;verticalAlign=middle;whiteSpace=wrap;rounded=0;fontSize=9;fontColor=#388e3c;" vertex="1" parent="1">
          <mxGeometry x="470" y="200" width="40" height="30" as="geometry"/>
        </mxCell>
        
        <!-- PixelData to TaskSerial -->
        <mxCell id="flow4" style="edgeStyle=orthogonalEdgeStyle;rounded=0;orthogonalLoop=1;jettySize=auto;html=1;strokeColor=#7b1fa2;strokeWidth=2;endArrow=classic;endSize=6;" edge="1" parent="1" source="pixelData" target="taskSerial">
          <mxGeometry relative="1" as="geometry">
            <Array as="points">
              <mxPoint x="500" y="155"/>
              <mxPoint x="500" y="270"/>
            </Array>
          </mxGeometry>
        </mxCell>
        
        <!-- ControlData to TaskControl -->
        <mxCell id="flow5" style="edgeStyle=orthogonalEdgeStyle;rounded=0;orthogonalLoop=1;jettySize=auto;html=1;strokeColor=#7b1fa2;strokeWidth=2;endArrow=classic;endSize=6;" edge="1" parent="1" source="controlData" target="taskControl">
          <mxGeometry relative="1" as="geometry">
            <Array as="points">
              <mxPoint x="500" y="270"/>
              <mxPoint x="500" y="375"/>
            </Array>
          </mxGeometry>
        </mxCell>
        
        <!-- TaskControl to Motor -->
        <mxCell id="flow6" style="edgeStyle=orthogonalEdgeStyle;rounded=0;orthogonalLoop=1;jettySize=auto;html=1;strokeColor=#d32f2f;strokeWidth=3;endArrow=classic;endSize=8;" edge="1" parent="1" source="taskControl" target="motor">
          <mxGeometry relative="1" as="geometry">
            <Array as="points">
              <mxPoint x="250" y="375"/>
              <mxPoint x="250" y="285"/>
            </Array>
          </mxGeometry>
        </mxCell>
        <mxCell id="flow6_label" value="PWM 제어" style="text;html=1;strokeColor=none;fillColor=none;align=center;verticalAlign=middle;whiteSpace=wrap;rounded=0;fontSize=10;fontColor=#d32f2f;" vertex="1" parent="1">
          <mxGeometry x="210" y="325" width="60" height="20" as="geometry"/>
        </mxCell>
        
        <!-- TaskControl to Servo -->
        <mxCell id="flow7" style="edgeStyle=orthogonalEdgeStyle;rounded=0;orthogonalLoop=1;jettySize=auto;html=1;strokeColor=#d32f2f;strokeWidth=3;endArrow=classic;endSize=8;" edge="1" parent="1" source="taskControl" target="servo">
          <mxGeometry relative="1" as="geometry">
            <Array as="points">
              <mxPoint x="250" y="375"/>
              <mxPoint x="250" y="355"/>
            </Array>
          </mxGeometry>
        </mxCell>
        <mxCell id="flow7_label" value="조향 제어" style="text;html=1;strokeColor=none;fillColor=none;align=center;verticalAlign=middle;whiteSpace=wrap;rounded=0;fontSize=10;fontColor=#d32f2f;" vertex="1" parent="1">
          <mxGeometry x="210" y="390" width="60" height="20" as="geometry"/>
        </mxCell>
        
        <!-- Mission to TaskControl -->
        <mxCell id="flow8" style="edgeStyle=orthogonalEdgeStyle;rounded=0;orthogonalLoop=1;jettySize=auto;html=1;strokeColor=#f57c00;strokeWidth=2;endArrow=classic;endSize=6;" edge="1" parent="1" source="missions" target="taskControl">
          <mxGeometry relative="1" as="geometry"/>
        </mxCell>
        <mxCell id="flow8_label" value="미션 명령" style="text;html=1;strokeColor=none;fillColor=none;align=center;verticalAlign=middle;whiteSpace=wrap;rounded=0;fontSize=10;fontColor=#f57c00;" vertex="1" parent="1">
          <mxGeometry x="480" y="365" width="60" height="20" as="geometry"/>
        </mxCell>
        
        <!-- Motor Encoder Feedback -->
        <mxCell id="feedback1" style="edgeStyle=orthogonalEdgeStyle;rounded=0;orthogonalLoop=1;jettySize=auto;html=1;strokeColor=#ff5722;strokeWidth=2;endArrow=classic;endSize=6;dashed=1;" edge="1" parent="1" source="motor" target="controlData">
          <mxGeometry relative="1" as="geometry">
            <Array as="points">
              <mxPoint x="230" y="285"/>
              <mxPoint x="230" y="270"/>
            </Array>
          </mxGeometry>
        </mxCell>
        <mxCell id="feedback1_label" value="엔코더&#xa;피드백" style="text;html=1;strokeColor=none;fillColor=none;align=center;verticalAlign=middle;whiteSpace=wrap;rounded=0;fontSize=9;fontColor=#ff5722;" vertex="1" parent="1">
          <mxGeometry x="350" y="250" width="50" height="30" as="geometry"/>
        </mxCell>
        
        <!-- Safety System Connections -->
        <mxCell id="safety1" style="edgeStyle=orthogonalEdgeStyle;rounded=0;orthogonalLoop=1;jettySize=auto;html=1;strokeColor=#ff9800;strokeWidth=2;endArrow=none;endSize=6;dashed=1;" edge="1" parent="1" source="watchdog" target="taskCamera">
          <mxGeometry relative="1" as="geometry">
            <Array as="points">
              <mxPoint x="700" y="135"/>
              <mxPoint x="700" y="160"/>
            </Array>
          </mxGeometry>
        </mxCell>
        
        <mxCell id="safety2" style="edgeStyle=orthogonalEdgeStyle;rounded=0;orthogonalLoop=1;jettySize=auto;html=1;strokeColor=#ff9800;strokeWidth=2;endArrow=none;endSize=6;dashed=1;" edge="1" parent="1" source="watchdog" target="taskControl">
          <mxGeometry relative="1" as="geometry">
            <Array as="points">
              <mxPoint x="700" y="135"/>
              <mxPoint x="700" y="375"/>
            </Array>
          </mxGeometry>
        </mxCell>
        
        <mxCell id="safety3" style="edgeStyle=orthogonalEdgeStyle;rounded=0;orthogonalLoop=1;jettySize=auto;html=1;strokeColor=#ff9800;strokeWidth=1;endArrow=none;endSize=4;dashed=1;" edge="1" parent="1" source="semaphores" target="pixelData">
          <mxGeometry relative="1" as="geometry">
            <Array as="points">
              <mxPoint x="680" y="220"/>
              <mxPoint x="680" y="155"/>
            </Array>
          </mxGeometry>
        </mxCell>
        
        <mxCell id="safety4" style="edgeStyle=orthogonalEdgeStyle;rounded=0;orthogonalLoop=1;jettySize=auto;html=1;strokeColor=#ff9800;strokeWidth=1;endArrow=none;endSize=4;dashed=1;" edge="1" parent="1" source="semaphores" target="controlData">
          <mxGeometry relative="1" as="geometry">
            <Array as="points">
              <mxPoint x="680" y="220"/>
              <mxPoint x="680" y="270"/>
            </Array>
          </mxGeometry>
        </mxCell>
        
        <!-- Legend -->
        <mxCell id="legend_bg" value="" style="rounded=1;whiteSpace=wrap;html=1;fillColor=#f8f9fa;strokeColor=#dee2e6;strokeWidth=1;" vertex="1" parent="1">
          <mxGeometry x="80" y="480" width="780" height="100" as="geometry"/>
        </mxCell>
        
        <mxCell id="legend_title" value="범례 (Legend)" style="text;html=1;strokeColor=none;fillColor=none;align=left;verticalAlign=top;whiteSpace=wrap;rounded=0;fontSize=14;fontStyle=1;" vertex="1" parent="1">
          <mxGeometry x="100" y="490" width="120" height="20" as="geometry"/>
        </mxCell>
        
        <!-- Legend Items Row 1 -->
        <mxCell id="legend1" value="하드웨어" style="rounded=1;whiteSpace=wrap;html=1;fillColor=#e3f2fd;strokeColor=#2196f3;strokeWidth=2;fontSize=10;" vertex="1" parent="1">
          <mxGeometry x="100" y="520" width="70" height="25" as="geometry"/>
        </mxCell>
        
        <mxCell id="legend2" value="FreeRTOS 태스크" style="rounded=1;whiteSpace=wrap;html=1;fillColor=#f3e5f5;strokeColor=#9c27b0;strokeWidth=2;fontSize=10;" vertex="1" parent="1">
          <mxGeometry x="180" y="520" width="90" height="25" as="geometry"/>
        </mxCell>
        
        <mxCell id="legend3" value="데이터 구조" style="rounded=1;whiteSpace=wrap;html=1;fillColor=#e8f5e8;strokeColor=#4caf50;strokeWidth=2;fontSize=10;" vertex="1" parent="1">
          <mxGeometry x="280" y="520" width="70" height="25" as="geometry"/>
        </mxCell>
        
        <mxCell id="legend4" value="안전 시스템" style="rounded=1;whiteSpace=wrap;html=1;fillColor=#fff3e0;strokeColor=#ff9800;strokeWidth=2;fontSize=10;" vertex="1" parent="1">
          <mxGeometry x="360" y="520" width="70" height="25" as="geometry"/>
        </mxCell>
        
        <mxCell id="legend5" value="미션 시스템" style="rounded=1;whiteSpace=wrap;html=1;fillColor=#fff8e1;strokeColor=#ffc107;strokeWidth=2;fontSize=10;" vertex="1" parent="1">
          <mxGeometry x="440" y="520" width="70" height="25" as="geometry"/>
        </mxCell>
        
        <!-- Legend Items Row 2 - Data Flows -->
        <mxCell id="legend6" value="주요 데이터 플로우" style="text;html=1;strokeColor=none;fillColor=none;align=center;verticalAlign=middle;whiteSpace=wrap;rounded=0;fontSize=10;fontStyle=1;" vertex="1" parent="1">
          <mxGeometry x="100" y="550" width="100" height="20" as="geometry"/>
        </mxCell>
        
        <mxCell id="legend_line1" value="" style="endArrow=classic;html=1;rounded=0;strokeColor=#1976d2;strokeWidth=3;" edge="1" parent="1">
          <mxGeometry width="50" height="50" relative="1" as="geometry">
            <mxPoint x="210" y="560" as="sourcePoint"/>
            <mxPoint x="250" y="560" as="targetPoint"/>
          </mxGeometry>
        </mxCell>
        <mxCell id="legend_line1_label" value="제어 신호" style="text;html=1;strokeColor=none;fillColor=none;align=center;verticalAlign=middle;whiteSpace=wrap;rounded=0;fontSize=9;" vertex="1" parent="1">
          <mxGeometry x="255" y="550" width="50" height="20" as="geometry"/>
        </mxCell>
        
        <mxCell id="legend_line2" value="" style="endArrow=classic;html=1;rounded=0;strokeColor=#ff5722;strokeWidth=2;dashed=1;" edge="1" parent="1">
          <mxGeometry width="50" height="50" relative="1" as="geometry">
            <mxPoint x="320" y="560" as="sourcePoint"/>
            <mxPoint x="360" y="560" as="targetPoint"/>
          </mxGeometry>
        </mxCell>
        <mxCell id="legend_line2_label" value="피드백" style="text;html=1;strokeColor=none;fillColor=none;align=center;verticalAlign=middle;whiteSpace=wrap;rounded=0;fontSize=9;" vertex="1" parent="1">
          <mxGeometry x="365" y="550" width="40" height="20" as="geometry"/>
        </mxCell>
        
        <mxCell id="legend_line3" value="" style="endArrow=none;html=1;rounded=0;strokeColor=#ff9800;strokeWidth=2;dashed=1;" edge="1" parent="1">
          <mxGeometry width="50" height="50" relative="1" as="geometry">
            <mxPoint x="420" y="560" as="sourcePoint"/>
            <mxPoint x="460" y="560" as="targetPoint"/>
          </mxGeometry>
        </mxCell>
        <mxCell id="legend_line3_label" value="모니터링" style="text;html=1;strokeColor=none;fillColor=none;align=center;verticalAlign=middle;whiteSpace=wrap;rounded=0;fontSize=9;" vertex="1" parent="1">
          <mxGeometry x="465" y="550" width="50" height="20" as="geometry"/>
        </mxCell>
        
      </root>
    </mxGraphModel>
  </diagram>
</mxfile>